<svg xmlns="http://www.w3.org/2000/svg" xmlns:xlink="http://www.w3.org/1999/xlink" class="svg-canvas" viewBox="0 0 800 600" width="1600" height="1200" preserveAspectRatio="none" version="1.1" style="/* background: radial-gradient(black, transparent); */background-color: transparent;">
      <!--滤镜-->
      <defs/>
    
      <!-- 背景 -->
      
    
      <!--元素-->
      
              <g id="shape_lTvgtjCGsN" ref="shape_lTvgtjCGsN" key="shape_lTvgtjCGsN" mask="">
                <g transform="translate(153.6468669787117,121.58427138014744) rotate(0,155.64797362168616,178.41572861985256) scale(1,1)" style="opacity: 1;mix-blend-mode: undefined;" filter="">
                  <!--普通元素-->
                  <svg xmlns="http://www.w3.org/2000/svg" xmlns:xlink="http://www.w3.org/1999/xlink" version="1.1" id="图层_1" x="0px" y="0px" width="311.2959472433723" height="356.8314572397051" viewBox="-21.132205963134766 54.980712890625 159.4991912841797 182.83029174804688" style="enable-background:new -41 42.46 200 200;" xml:space="preserve" preserveAspectRatio="none" data-parent="shape_lTvgtjCGsN">
<g id="ckaiMe.tif_2__s55z4lE7NA_c">
	<g>
		<path style="" d="M137.728,109.146c-9.327-29.374-44.171-59.136-88.664-53.465C28.83,58.259,11.89,67.7-2.023,82.624    c-6.99,7.499-15.701,21.54-16.632,26.87c-0.074,0.415,0.06,0.409,0.268,0.034c4.439-8.182,11.784-17.382,18.018-23.448    c0.047,0.181,0.087,0.368,0.1,0.549c0.268-0.288,0.529-0.576,0.79-0.857c0.75-0.797,1.453-1.634,2.243-2.377    c6.1-6.2,13.083-11.389,20.549-15.373c3.729-1.995,7.613-3.609,11.53-4.995c3.937-1.326,7.934-2.343,11.938-3.073    c1.004-0.167,2.009-0.295,3.013-0.442l1.5-0.214l1.507-0.127c1.004-0.08,2.002-0.161,3-0.248c0.997-0.027,1.995-0.047,2.986-0.074    c0.516-0.013,0.964-0.034,1.52-0.034l1.466,0.04c0.971,0.033,1.935,0.047,2.913,0.087c0.984,0.087,1.962,0.167,2.946,0.255    c0.489,0.04,0.978,0.074,1.46,0.134l1.446,0.201c0.958,0.141,1.915,0.268,2.866,0.422c0.944,0.187,1.882,0.375,2.819,0.562    c0.468,0.1,0.937,0.187,1.399,0.295l1.379,0.355c0.917,0.241,1.835,0.482,2.745,0.723c0.897,0.288,1.788,0.569,2.678,0.857    l1.332,0.429l1.299,0.495c0.864,0.328,1.727,0.656,2.584,0.984c0.844,0.375,1.681,0.743,2.511,1.112    c6.662,2.973,12.628,6.823,17.891,11.055c10.546,8.483,18.145,18.56,23.368,28.175c1.747,3.207,3.247,6.374,4.533,9.448    C138.793,113.779,138.177,110.545,137.728,109.146z M131.519,106.551c-3.489-6.52-8.116-13.247-13.991-19.575    c-0.43-0.463-0.715-0.527-1.03-0.835c-5.658-5.604-8.398-6.845-11.284-6.53c-0.937,0.1-2.35,1.426-1.62,2.417    c0.375,0.509,1.165,0.67,1.353,1.272c0.154,0.489-0.569,1.359-0.569,1.359c-0.368,0.362-0.803,0.73-0.87,1.245    c-0.028,0.231,0.024,0.461,0.093,0.688c0.133,0.438,0.296,0.866,0.454,1.296c0.147,0.4,0.317,0.817,0.632,1.097    c0.623,0.549,1.915,0.054,2.504-0.341c0.375-0.255,0.234-0.924,0.636-1.125c1.286-0.656,1.694,1.212,1.721,2.31    c0.007,0.348,0.04,0.77,0.348,0.931c0.12,0.054,1.446,1.694,1.486,2.009c0.054,0.368,0.422,0.596,0.737,0.797    c1.306,0.83-0.957,2.852-2.069,4.312c-0.415,0.542,0.362,0.924-0.074,1.56c-0.388,0.576,0.107,1.654,0.301,2.203    c0.281,0.777,0.596,1.594,0.616,2.397c0.08,2.739,0.161,5.403,3.837,5.705c1.473,1.935,3.16,0.562,4.406-0.074    c1.373-0.703,1.286-2.33,1.185-3.944c-0.1-1.62-0.027-3.549,1.145-4.62c0.83-0.763,1.714-1.138,2.511-1.446    c0.221-0.08,0.475-0.167,0.683-0.054c1.031,0.536,0.288,2.491,1.125,3.006c1.004,0.616,0.737,0.884,1.486,1.44    c0.824,0.616,2.699,1.614,4.245,2.504C131.519,106.551,131.515,106.555,131.519,106.551z M86.259,65.818l-1.265-0.489    l-1.292-0.415c-0.864-0.275-1.728-0.556-2.598-0.837c-0.884-0.234-1.768-0.469-2.658-0.703l-1.339-0.348    c-0.449-0.107-0.904-0.187-1.359-0.288c-0.911-0.181-1.821-0.368-2.739-0.556c-0.917-0.147-1.848-0.268-2.779-0.409l-1.399-0.201    c-0.469-0.06-0.931-0.087-1.399-0.134c-0.937-0.08-1.875-0.161-2.819-0.248c-0.957-0.04-1.935-0.06-2.906-0.094l-1.46-0.04    c-0.422,0-0.951,0.027-1.42,0.04c-0.964,0.027-1.928,0.054-2.899,0.087c-0.971,0.08-1.935,0.167-2.913,0.254l-1.46,0.127    l-1.453,0.214c-0.971,0.147-1.948,0.268-2.919,0.442c-3.884,0.73-7.76,1.721-11.563,3.047c-3.783,1.386-7.526,2.993-11.128,4.962    c-3.582,1.995-7.111,4.171-10.418,6.702c-3.301,2.538-6.495,5.283-9.468,8.282c-0.777,0.716-1.46,1.533-2.196,2.297    c-0.723,0.77-1.453,1.54-2.129,2.364l-2.062,2.437l-1.955,2.538c-0.676,0.83-1.259,1.734-1.882,2.605    c-0.241,0.348-0.475,0.69-0.723,1.031v0.007c-0.496,1.399-0.737,2.598-0.288,4.908c0.529,2.765,1.982,2.652,2.551,2.585    c1.433-0.174,1.112-1.948,1.118-2.665c0.013-1.225-0.027-2.504,0.536-3.629c0.007-0.027,0.02-0.047,0.034-0.074    c0.067-0.12,0.154-0.228,0.281-0.268c1.48-0.469,0.516,6.173,0.589,6.776c0.174,1.493,0.234,2.819-0.562,4.259    c-1.038,1.888,0.475,3.549,2.591,4.131c1.433,0.388,3.796,0.897,5.022,0.255c2.042-1.071,1.774-0.723,1.446-2.953    c-0.428-2.993,0.268-5.698,1.922-8.189c0.295-0.455,0.603-0.931,0.777-1.446c1.332-3.89,4.814-4.814,8.43-3.723    c0.784,0.234,1.681,0.348,2.377-0.08c0.295-0.187,0.529-0.462,0.83-0.636c0.797-0.482,0.402,0.201,1.279,0.509    c1.004,0.355,2.136,0.516,3.04,1.091c1.272,0.81,2.243,1.178,1.982,2.471c-0.248,1.219,0.087,4.982,2.176,4.366    c0.603-0.174,0.911-0.931,1.105-1.453c0.442-1.239,0.502-2.685,0.469-3.991c-0.047-1.808,0.214-3.582,2.009-4.426    c2.009-0.944,4.211-1.486,6.24-2.41c0.656-0.301,1.319-0.629,1.808-1.165c1.205-1.312,1.754-2.765,3.281-3.843    c1.446-1.024,3.174-1.6,4.935-1.714c1.024-0.06,2.196-0.388,2.591-1.332c0.107-0.248,0.147-0.529,0.301-0.757    c0.341-0.495,1.051-0.516,1.647-0.449c1.908,0.201,3.596,0.964,5.443,1.332c2.223,0.442,5.136,0.663,7.265,0.02    c0.837-0.248,1.045-1.319-0.208-2.109c-0.843-0.536-2.183,0.074-3.167-0.147c-0.944-0.214-1.741-0.877-1.774-1.895    c-0.013-0.542,0.268-1.098,0.75-1.339c0.71-0.355,1.547,0.04,2.337,0.161c1.855,0.288,3.596-0.877,5.464-0.864    c0.549,0.007,1.306,0.188,1.105,0.931c-0.094,0.362-0.415,0.623-0.75,0.783c-0.341,0.167-0.71,0.255-1.045,0.422    c-0.335,0.161-0.656,0.422-0.757,0.783c-0.315,1.178,1.433,1.875,2.216,2.277c1.594,0.804,3.308,1.393,5.015,1.908    c0.261,0.08,0.536,0.147,0.797,0.074c0.415-0.127,0.649-0.603,0.636-1.038c-0.02-0.616-0.395-1.399-0.716-1.928    c-0.596-0.984-1.982-1.319-2.41-2.397c-0.355-0.917,0.288-1.942,0.147-2.913c-0.101-0.663-0.556-1.219-1.051-1.667    c-1.078-0.984-2.437-1.634-3.488-2.658c-1.058-1.031-1.868-2.384-2.658-3.616c-0.542-0.85-0.958-1.841-0.824-2.839    c0.107-0.77,0.556-1.486,1.178-1.948c0.676-0.509,1.553-0.723,2.384-0.603c2.685,0.408,6.508,6.468,9.428,3.522    c0.395-0.402,0.629-0.931,0.984-1.373c1.212-1.54,3.375-1.413,5.142-1.607c0.241-0.027,0.475-0.047,0.716-0.067    C86.306,65.838,86.286,65.825,86.259,65.818z" fill="#090e1c"/>
		<path style="" d="M24.331,170.656c0.25-0.293,0.696-0.455,1.254-0.472c13.833-0.425,27.733-0.118,41.574-0.162    c0.064,0,0.129,0,0.193-0.001c3.47-0.011,6.939,0.007,10.409-0.02c1.735-0.013,3.47-0.037,5.204-0.081    c1.271-0.032,3.171-0.57,4.069,0.61c0.641,0.842,0.693,1.994,0.553,3.043c-0.335,2.503-1.649,4.862-3.602,6.463    c-1.797,1.474-4.104,2.333-5.601,4.111c-1.16,1.378-1.702,3.158-2.558,4.744c-1.131,2.095-2.805,3.838-4.457,5.552    c-0.482,0.5-0.985,1.014-1.631,1.265c-0.961,0.373-2.035,0.1-3.066,0.111c-1.124,0.012-2.212,0.368-3.28,0.72    c-0.771,0.255-1.556,0.516-2.208,1c-0.998,0.74-1.567,1.904-2.227,2.957c-2.188,3.49-5.76,6.086-9.755,7.088    c-0.472,0.118-0.983,0.235-1.304,0.6c-0.308,0.35-0.368,0.848-0.562,1.272c-1.197,2.618-6.306,1.155-7.255,3.873    c-0.239,0.685-0.123,1.517-0.592,2.071c-0.526,0.621-1.734,0.921-1.529,1.708c0.134,0.513,0.856,0.701,0.979,1.217    c0.119,0.498-0.376,0.899-0.68,1.311c-0.611,0.829-0.251,1.929,0.053,2.912c0.294,0.95,0.53,2.235,0.647,2.618    c0.175,0.574-0.363,0.705-1.204,0.688c-1.294-0.025-6.947-4.525-7.902-15.515c-0.702-8.074,1.307-16.133,1.976-24.21    c0.217-2.62,0.284-5.451-1.162-7.647c-1.679-2.55-5.077-3.713-6.371-6.479C24.023,171.42,24.067,170.965,24.331,170.656z" fill="#090e1c"/>
		<path style="" d="M121.731,204.936c-15.894,16.459-36.677,25.236-62.639,26.028    c-37.29-1.646-63.885-19.358-79.967-53.271c-0.23-0.355-0.413-0.191-0.058,0.838c0.21,0.608,0.216,0.708,0.343,1.055    c4.161,11.32,10.147,21.587,18.071,30.669c5.021,5.754,10.813,10.706,17.237,14.837c9.97,6.412,20.856,10.248,32.648,11.878    c13.215,1.827,26.056,0.707,38.608-3.652c16.014-5.561,29.351-14.347,39.403-28.382c2.465-3.441,2.4-4.532,2.4-4.532    c0.277-0.523-0.398-1.026-0.82-0.611L121.731,204.936z" fill="#090e1c"/>
		<path style="" d="M3.214,119.69" fill="#090e1c"/>
	</g>
</g>
</svg>
                </g>
              </g>
              <g id="shape_aBCKNhfdEE" ref="shape_aBCKNhfdEE" key="shape_aBCKNhfdEE" mask="">
                <g transform="translate(226.93936481641234,211.13772516300887) rotate(0,298.6412547030079,168.2588532594996) scale(1,1)" style="opacity: 1;mix-blend-mode: undefined;" filter="">
                  <!--普通元素-->
                  <svg xmlns="http://www.w3.org/2000/svg" xmlns:xlink="http://www.w3.org/1999/xlink" version="1.1" width="597.2825094060158" height="336.51770651899915" viewBox="0 0 410 231" data-ligature="true" data-parent="shape_aBCKNhfdEE"><g data-role="text" data-width="211.77685546875" data-height="33" transform="translate(99, 99)"><path d="M6.54-9.35L6.54-9.35L6.54-26.81L9.83-26.81L9.83-9.35Q9.83-6.88 8.09-5.12L8.09-5.12Q6.35-3.38 3.87-3.38L3.87-3.38Q1.90-3.38 0.32-4.56L0.32-4.56L2.11-7.35Q2.87-6.67 3.87-6.67L3.87-6.67Q4.98-6.67 5.77-7.46L5.77-7.46Q6.54-8.23 6.54-9.35Z" transform="translate(0 26) " fill="#090e1c" stroke="#090e1c" stroke-width="0.055" data-glyph-w="11.4404296875" data-glyph-h="34.3857421875" data-glyph-ascender="27.650390625" data-glyph-descender="-6.7353515625" data-kerning="0"/><path d="M4.43-3.80L4.43-19.42L1.14-19.42L1.14-3.80L4.43-3.80ZM2.79-27.23Q3.63-27.23 4.24-26.62L4.24-26.62Q4.83-26.02 4.83-25.17L4.83-25.17Q4.83-24.31 4.24-23.72L4.24-23.72Q3.63-23.11 2.79-23.11L2.79-23.11Q1.93-23.11 1.32-23.72L1.32-23.72Q0.73-24.31 0.73-25.17L0.73-25.17Q0.73-26.02 1.32-26.62L1.32-26.62Q1.93-27.23 2.79-27.23L2.79-27.23Z" transform="translate(11.4404296875 26) " fill="#090e1c" stroke="#090e1c" stroke-width="0.055" data-glyph-w="5.54296875" data-glyph-h="34.3857421875" data-glyph-ascender="27.650390625" data-glyph-descender="-6.7353515625" data-kerning="0"/><path d="M8.46-16.53Q6.59-16.53 5.25-15.10L5.25-15.10Q3.93-13.65 3.93-11.60L3.93-11.60Q3.93-9.56 5.25-8.12L5.25-8.12Q6.59-6.67 8.46-6.67L8.46-6.67Q10.33-6.67 11.65-8.12L11.65-8.12Q12.97-9.56 12.97-11.60L12.97-11.60Q12.97-13.65 11.65-15.10L11.65-15.10Q10.33-16.53 8.46-16.53L8.46-16.53ZM12.97-18.19L12.97-18.19L12.97-19.42L16.26-19.42L16.26-3.80L12.97-3.80L12.97-5.01Q10.97-3.38 8.35-3.38L8.35-3.38Q5.16-3.38 2.90-5.80L2.90-5.80Q0.64-8.20 0.64-11.60L0.64-11.60Q0.64-15.02 2.90-17.42L2.90-17.42Q5.16-19.82 8.35-19.82L8.35-19.82Q10.97-19.82 12.97-18.19Z" transform="translate(16.9833984375 26) " fill="#090e1c" stroke="#090e1c" stroke-width="0.055" data-glyph-w="17.38623046875" data-glyph-h="34.3857421875" data-glyph-ascender="27.650390625" data-glyph-descender="-6.7353515625" data-kerning="0"/><path d="M4.42-12.47L4.42-12.47L4.42-3.80L1.13-3.80L1.13-19.42L4.42-19.42L4.42-18.18Q6.33-19.82 8.94-19.82L8.94-19.82Q11.83-19.82 13.87-17.79L13.87-17.79Q15.92-15.76 15.92-12.87L15.92-12.87L15.92-3.80L12.63-3.80L12.63-12.47Q12.63-14.16 11.44-15.36L11.44-15.36Q10.23-16.56 8.52-16.56L8.52-16.56Q6.83-16.56 5.62-15.36L5.62-15.36Q4.42-14.16 4.42-12.47Z" transform="translate(34.36962890625 26) " fill="#090e1c" stroke="#090e1c" stroke-width="0.055" data-glyph-w="17.0478515625" data-glyph-h="34.3857421875" data-glyph-ascender="27.650390625" data-glyph-descender="-6.7353515625" data-kerning="0"/><path d="M4.67-0.56L4.67-0.56L6.14-4.21L0-19.42L3.54-19.42L7.91-8.60L12.29-19.42L15.84-19.42L7.72 0.68Q6.90 2.72 4.85 3.59L4.85 3.59Q2.82 4.45 0.76 3.63L0.76 3.63Q0.44 3.50 0.13 3.32L0.13 3.32L1.39 0.19Q1.66 0.44 2.00 0.58L2.00 0.58Q2.79 0.89 3.56 0.56L3.56 0.56Q4.35 0.23 4.67-0.56Z" transform="translate(51.41748046875 26) " fill="#090e1c" stroke="#090e1c" stroke-width="0.055" data-glyph-w="15.83935546875" data-glyph-h="34.3857421875" data-glyph-ascender="27.650390625" data-glyph-descender="-6.7353515625" data-kerning="0"/><path d="M12.63-19.42L12.63-10.73Q12.63-9.04 11.44-7.85L11.44-7.85Q10.23-6.65 8.52-6.65L8.52-6.65Q6.83-6.65 5.62-7.85L5.62-7.85Q4.42-9.04 4.42-10.73L4.42-10.73L4.42-19.42L1.13-19.42L1.13-10.33Q1.13-7.46 3.17-5.41L3.17-5.41Q5.22-3.38 8.12-3.38L8.12-3.38Q10.72-3.38 12.63-5.03L12.63-5.03L12.63-3.80L15.92-3.80L15.92-19.42L12.63-19.42Z" transform="translate(67.2568359375 26) " fill="#090e1c" stroke="#090e1c" stroke-width="0.055" data-glyph-w="17.0478515625" data-glyph-h="34.3857421875" data-glyph-ascender="27.650390625" data-glyph-descender="-6.7353515625" data-kerning="0"/><path d="M8.46-16.53Q6.59-16.53 5.25-15.10L5.25-15.10Q3.93-13.65 3.93-11.60L3.93-11.60Q3.93-9.56 5.25-8.12L5.25-8.12Q6.59-6.67 8.46-6.67L8.46-6.67Q10.33-6.67 11.65-8.12L11.65-8.12Q12.97-9.56 12.97-11.60L12.97-11.60Q12.97-13.65 11.65-15.10L11.65-15.10Q10.33-16.53 8.46-16.53L8.46-16.53ZM12.97-18.19L12.97-18.19L12.97-19.42L16.26-19.42L16.26-3.80L12.97-3.80L12.97-5.01Q10.97-3.38 8.35-3.38L8.35-3.38Q5.16-3.38 2.90-5.80L2.90-5.80Q0.64-8.20 0.64-11.60L0.64-11.60Q0.64-15.02 2.90-17.42L2.90-17.42Q5.16-19.82 8.35-19.82L8.35-19.82Q10.97-19.82 12.97-18.19Z" transform="translate(84.3046875 26) " fill="#090e1c" stroke="#090e1c" stroke-width="0.055" data-glyph-w="17.38623046875" data-glyph-h="34.3857421875" data-glyph-ascender="27.650390625" data-glyph-descender="-6.7353515625" data-kerning="0"/><path d="M4.42-12.47L4.42-12.47L4.42-3.80L1.13-3.80L1.13-19.42L4.42-19.42L4.42-18.18Q6.33-19.82 8.94-19.82L8.94-19.82Q11.83-19.82 13.87-17.79L13.87-17.79Q15.92-15.76 15.92-12.87L15.92-12.87L15.92-3.80L12.63-3.80L12.63-12.47Q12.63-14.16 11.44-15.36L11.44-15.36Q10.23-16.56 8.52-16.56L8.52-16.56Q6.83-16.56 5.62-15.36L5.62-15.36Q4.42-14.16 4.42-12.47Z" transform="translate(101.69091796875 26) " fill="#090e1c" stroke="#090e1c" stroke-width="0.055" data-glyph-w="17.0478515625" data-glyph-h="34.3857421875" data-glyph-ascender="27.650390625" data-glyph-descender="-6.7353515625" data-kerning="0"/><path d="M0,0Z" transform="translate(118.73876953125 26) " fill="#090e1c" stroke="#090e1c" stroke-width="0.055" data-glyph-w="8.185546875" data-glyph-h="34.3857421875" data-glyph-ascender="27.650390625" data-glyph-descender="-6.7353515625" data-kerning="0"/><path d="M11.07-3.80L1.61-3.80L1.61-26.81L11.07-26.81Q15.32-26.81 18.34-23.44L18.34-23.44Q21.33-20.08 21.33-15.31L21.33-15.31Q21.33-10.54 18.34-7.17L18.34-7.17Q15.32-3.80 11.07-3.80L11.07-3.80ZM11.07-23.53L4.90-23.53L4.90-7.09L11.07-7.09Q13.95-7.09 16.00-9.49L16.00-9.49Q18.05-11.91 18.05-15.31L18.05-15.31Q18.05-18.71 16.00-21.12L16.00-21.12Q13.95-23.53 11.07-23.53L11.07-23.53Z" transform="translate(126.92431640625 26) " fill="#090e1c" stroke="#090e1c" stroke-width="0.055" data-glyph-w="22.30078125" data-glyph-h="34.3857421875" data-glyph-ascender="27.650390625" data-glyph-descender="-6.7353515625" data-kerning="0"/><path d="M4.43-3.80L4.43-19.42L1.14-19.42L1.14-3.80L4.43-3.80ZM2.79-27.23Q3.63-27.23 4.24-26.62L4.24-26.62Q4.83-26.02 4.83-25.17L4.83-25.17Q4.83-24.31 4.24-23.72L4.24-23.72Q3.63-23.11 2.79-23.11L2.79-23.11Q1.93-23.11 1.32-23.72L1.32-23.72Q0.73-24.31 0.73-25.17L0.73-25.17Q0.73-26.02 1.32-26.62L1.32-26.62Q1.93-27.23 2.79-27.23L2.79-27.23Z" transform="translate(149.22509765625 26) " fill="#090e1c" stroke="#090e1c" stroke-width="0.055" data-glyph-w="5.54296875" data-glyph-h="34.3857421875" data-glyph-ascender="27.650390625" data-glyph-descender="-6.7353515625" data-kerning="0"/><path d="M8.46-16.53Q6.59-16.53 5.25-15.10L5.25-15.10Q3.93-13.65 3.93-11.60L3.93-11.60Q3.93-9.56 5.25-8.12L5.25-8.12Q6.59-6.67 8.46-6.67L8.46-6.67Q10.33-6.67 11.65-8.12L11.65-8.12Q12.97-9.56 12.97-11.60L12.97-11.60Q12.97-13.65 11.65-15.10L11.65-15.10Q10.33-16.53 8.46-16.53L8.46-16.53ZM16.26-19.42L16.26-4.21Q16.26-0.81 13.86 1.61L13.86 1.61Q11.46 4.01 8.04 4.01L8.04 4.01Q5.80 4.01 3.88 2.88L3.88 2.88Q2.01 1.77 0.92-0.10L0.92-0.10L3.77-1.74Q5.20 0.73 8.04 0.73L8.04 0.73Q10.09 0.73 11.54-0.73L11.54-0.73Q12.97-2.16 12.97-4.21L12.97-4.21L12.97-5.01Q10.97-3.38 8.35-3.38L8.35-3.38Q5.16-3.38 2.90-5.80L2.90-5.80Q0.64-8.20 0.64-11.60L0.64-11.60Q0.64-15.02 2.90-17.42L2.90-17.42Q5.16-19.82 8.35-19.82L8.35-19.82Q10.97-19.82 12.97-18.19L12.97-18.19L12.97-19.42L16.26-19.42Z" transform="translate(154.76806640625 26) " fill="#090e1c" stroke="#090e1c" stroke-width="0.055" data-glyph-w="17.38623046875" data-glyph-h="34.3857421875" data-glyph-ascender="27.650390625" data-glyph-descender="-6.7353515625" data-kerning="0"/><path d="M4.43-3.80L4.43-19.42L1.14-19.42L1.14-3.80L4.43-3.80ZM2.79-27.23Q3.63-27.23 4.24-26.62L4.24-26.62Q4.83-26.02 4.83-25.17L4.83-25.17Q4.83-24.31 4.24-23.72L4.24-23.72Q3.63-23.11 2.79-23.11L2.79-23.11Q1.93-23.11 1.32-23.72L1.32-23.72Q0.73-24.31 0.73-25.17L0.73-25.17Q0.73-26.02 1.32-26.62L1.32-26.62Q1.93-27.23 2.79-27.23L2.79-27.23Z" transform="translate(172.154296875 26) " fill="#090e1c" stroke="#090e1c" stroke-width="0.055" data-glyph-w="5.54296875" data-glyph-h="34.3857421875" data-glyph-ascender="27.650390625" data-glyph-descender="-6.7353515625" data-kerning="0"/><path d="M3.51-19.42L0.64-19.42L0.64-16.13L3.51-16.13L3.51-8.73Q3.51-6.69 4.96-5.24L4.96-5.24Q6.41-3.80 8.44-3.80L8.44-3.80L10.51-3.80L10.51-7.09L8.44-7.09Q7.77-7.09 7.28-7.57L7.28-7.57Q6.80-8.04 6.80-8.73L6.80-8.73L6.80-16.13L10.51-16.13L10.51-19.42L6.80-19.42L6.80-24.35L3.51-24.35L3.51-19.42Z" transform="translate(177.697265625 26) " fill="#090e1c" stroke="#090e1c" stroke-width="0.055" data-glyph-w="11.150390625" data-glyph-h="34.3857421875" data-glyph-ascender="27.650390625" data-glyph-descender="-6.7353515625" data-kerning="0"/><path d="M8.46-16.53Q6.59-16.53 5.25-15.10L5.25-15.10Q3.93-13.65 3.93-11.60L3.93-11.60Q3.93-9.56 5.25-8.12L5.25-8.12Q6.59-6.67 8.46-6.67L8.46-6.67Q10.33-6.67 11.65-8.12L11.65-8.12Q12.97-9.56 12.97-11.60L12.97-11.60Q12.97-13.65 11.65-15.10L11.65-15.10Q10.33-16.53 8.46-16.53L8.46-16.53ZM12.97-18.19L12.97-18.19L12.97-19.42L16.26-19.42L16.26-3.80L12.97-3.80L12.97-5.01Q10.97-3.38 8.35-3.38L8.35-3.38Q5.16-3.38 2.90-5.80L2.90-5.80Q0.64-8.20 0.64-11.60L0.64-11.60Q0.64-15.02 2.90-17.42L2.90-17.42Q5.16-19.82 8.35-19.82L8.35-19.82Q10.97-19.82 12.97-18.19Z" transform="translate(188.84765625 26) " fill="#090e1c" stroke="#090e1c" stroke-width="0.055" data-glyph-w="17.38623046875" data-glyph-h="34.3857421875" data-glyph-ascender="27.650390625" data-glyph-descender="-6.7353515625" data-kerning="0"/><path d="M4.42-3.80L4.42-26.81L1.13-26.81L1.13-3.80L4.42-3.80Z" transform="translate(206.23388671875 26) " fill="#090e1c" stroke="#090e1c" stroke-width="0.055" data-glyph-w="5.54296875" data-glyph-h="34.3857421875" data-glyph-ascender="27.650390625" data-glyph-descender="-6.7353515625" data-kerning="0"/></g></svg>
                </g>
              </g>
              <g id="shape_7lOuK3Mb1b" ref="shape_7lOuK3Mb1b" key="shape_7lOuK3Mb1b" mask="">
                <g transform="translate(-264.591664593142,-156.06063732071695) rotate(0,631.5169947012388,448.69027535866564) scale(1,1)" style="opacity: 1;mix-blend-mode: undefined;" filter="">
                  <!--普通元素-->
                  <svg xmlns="http://www.w3.org/2000/svg" xmlns:xlink="http://www.w3.org/1999/xlink" version="1.1" width="1263.0339894024776" height="897.3805507173313" viewBox="0 0 867 616" data-ligature="true" data-parent="shape_7lOuK3Mb1b"><g data-role="text" data-width="338.84" data-height="88" transform="translate(264, 264)"><path d="M70.49-32.38L56.67-32.38L56.67-28.25L77.09-28.25L77.09-21.47L56.67-21.47L56.67-18.04L78.06-18.04L78.06-11.35L56.67-11.35L56.67-8.45L45.67-8.45L45.67-11.35L25.26-11.35L25.26-18.04L45.67-18.04L45.67-21.47L26.22-21.47L26.22-28.25L45.67-28.25L45.67-32.38L26.93-32.38L26.93-39.16L45.67-39.16L45.67-44L24.99-44L24.99-50.69L45.67-50.69L45.67-54.56L26.93-54.56L26.93-61.25L45.67-61.25L45.67-63.54L56.67-63.54L56.67-61.25L67.32-61.25L72.34-61.25L77.35-61.25L77.35-50.69L79.11-50.69L79.11-44L77.35-44L77.35-39.34Q77.35-36.43 75.33-34.41Q73.30-32.38 70.49-32.38L70.49-32.38ZM56.67-54.56L56.67-50.69L67.32-50.69L67.32-54.56L56.67-54.56ZM56.67-44L56.67-39.16L65.91-39.16Q67.32-39.16 67.32-40.57L67.32-40.57L67.32-44L56.67-44ZM2.82-31.06L11-54.38L1.85-54.38L1.85-62.13L24.20-62.13L16.28-38.81L23.41-38.81L24.38-38.81L17.86-16.19L25.08-6.42L79.11-6.42L79.11 0.09L18.83 0.09L14.78-5.46L13.20 0.09L2.90 0.09L11.70-31.06L2.82-31.06Z" transform="translate(0 75) " fill="#090e1c" stroke="#090e1c" stroke-width="0.147" data-glyph-w="85.96" data-glyph-h="88" data-glyph-ascender="75.592" data-glyph-descender="-12.408" data-kerning="0"/><path d="M78.23-51.04L78.23-46.55L66.18-46.55L66.18-51.22Q66.18-52.36 65.38-53.15Q64.59-53.94 63.45-53.94L63.45-53.94L45.14-53.94L45.14-46.55L33.09-46.55L33.09-60.63L47.96-60.63L46.64-63.54L59.84-63.54L61.16-60.63L68.64-60.63Q70.58-60.63 72.34-59.88Q74.10-59.14 75.42-57.82Q76.74-56.50 77.48-54.74Q78.23-52.98 78.23-51.04L78.23-51.04ZM33.09-34.67L33.09-43.30L77.70-43.30L77.70-34.67L33.09-34.67ZM69.70-22.35L69.70-10.74Q69.70-9.68 70.44-8.93Q71.19-8.18 72.25-8.18L72.25-8.18L79.11-8.18L75.50-0.09L67.32-0.09Q65.47-0.09 63.84-0.79Q62.22-1.50 60.98-2.73Q59.75-3.96 59.05-5.59Q58.34-7.22 58.34-9.06L58.34-9.06L58.34-22.35L50.95-22.35L46.64 0.18L35.11 0.18L39.42-22.35L33.09-22.35L33.09-30.98L77.70-30.98L77.70-22.35L69.70-22.35ZM26.40-34.76L32.12-34.76L23.58-4.75L13.02-4.75L20.59-27.72L13.38-27.72L20.06-53.42L19.71-53.42L12.41-53.42L12.41-0.18L1.85-0.18L1.85-61.78L7.57-61.78L12.41-61.78L32.12-61.78L26.40-34.76Z" transform="translate(85.96 75) " fill="#090e1c" stroke="#090e1c" stroke-width="0.147" data-glyph-w="85.96" data-glyph-h="88" data-glyph-ascender="75.592" data-glyph-descender="-12.408" data-kerning="0"/><path d="M1.85-46.64L1.85-54.65L5.54-54.65L3.70-61.86L14.87-61.86L16.72-54.65L18.74-54.65L18.74-63.45L30.80-63.45L30.80-54.65L32.82-54.65L34.67-61.86L45.85-61.86L44-54.65L47.70-54.65L47.70-46.64L30.80-46.64L30.80-32.91L18.74-32.91L18.74-46.64L1.85-46.64ZM11.97-32.91L1.85-32.91L4.84-44.44L14.96-44.44L11.97-32.91ZM37.58-32.91L34.58-44.44L44.70-44.44L47.70-32.91L37.58-32.91ZM1.85 0L1.85-7.57Q5.37-8.01 9.42-8.62L9.42-8.62Q8.27-9.06 7.13-9.55Q5.98-10.03 4.75-10.56L4.75-10.56L4.75-18.22L4.75-19.98L1.85-19.98L1.85-27.98L4.75-27.98L4.75-30.71L15.40-30.71L15.40-27.98L34.14-27.98L34.14-30.71L44.79-30.71L44.79-27.98L47.70-27.98L47.70-19.98L44.79-19.98L44.79-18.22L44.79-10.56Q43.56-10.03 42.42-9.55Q41.27-9.06 40.13-8.62L40.13-8.62Q44.18-8.01 47.70-7.57L47.70-7.57L47.70 0Q41.01-0.53 35.68-1.28Q30.36-2.02 24.82-3.52L24.82-3.52Q19.18-2.02 13.86-1.28Q8.54-0.53 1.85 0L1.85 0ZM15.40-19.98L15.40-15.05Q17.78-14.08 20.15-13.38Q22.53-12.67 24.82-11.97L24.82-11.97Q27.10-12.67 29.44-13.38Q31.77-14.08 34.14-15.05L34.14-15.05L34.14-19.98L15.40-19.98ZM79.11-55.97L79.11-47.34Q79.11-39.07 76.96-32.52Q74.80-25.96 71.02-20.59L71.02-20.59Q72.86-18.83 74.89-17.12Q76.91-15.40 79.11-13.55L79.11-13.55L79.11-0.35Q75.06-3.17 71.24-6.16Q67.41-9.15 64.06-12.50L64.06-12.50Q60.72-9.15 56.94-6.16Q53.15-3.17 49.10-0.35L49.10-0.35L49.10-13.55Q51.30-15.40 53.33-17.12Q55.35-18.83 57.20-20.59L57.20-20.59Q53.86-25.52 51.74-31.33Q49.63-37.14 49.19-44.44L49.19-44.44L59.22-44.44Q59.58-39.25 60.85-35.42Q62.13-31.59 64.15-28.34L64.15-28.34Q66.62-32.03 67.98-36.56Q69.34-41.10 69.34-47.34L69.34-47.34L65.21-47.34L49.28-47.34L54.56-63.45L66.88-63.45L64.50-55.97L79.11-55.97Z" transform="translate(171.92 75) " fill="#090e1c" stroke="#090e1c" stroke-width="0.147" data-glyph-w="85.96" data-glyph-h="88" data-glyph-ascender="75.592" data-glyph-descender="-12.408" data-kerning="0"/><path d="M15.40 0L2.90 0L2.90-7.66L2.90-11.18L2.90-17.16L2.90-20.68L2.90-27.63L2.90-28.51L65.30-28.51L78.06-28.51L78.06-20.68L78.06-17.16L78.06-11.53L78.06-11.18Q77.97-8.80 77.22-6.78Q76.47-4.75 75.15-3.26Q73.83-1.76 72.07-0.88Q70.31 0 68.38 0L68.38 0L15.40 0ZM15.40-20.68L15.40-17.16L65.30-17.16L65.30-20.68L15.40-20.68ZM15.40-11.18L15.40-7.66L62.48-7.66Q63.71-7.66 64.50-8.62Q65.30-9.59 65.30-11L65.30-11L65.30-11.18L15.40-11.18ZM44.18-62.57L44.18-63.36L79.11-63.36L79.11-62.57L79.11-54.65L79.11-40.39Q79.11-38.37 78.36-36.61Q77.62-34.85 76.30-33.53Q74.98-32.21 73.22-31.46Q71.46-30.71 69.43-30.71L69.43-30.71L44.18-30.71L44.18-34.14L44.18-39.42L44.18-54.65L44.18-62.57ZM66.88-42.15L66.88-54.65L56.41-54.65L56.41-39.42L64.15-39.42Q65.30-39.42 66.09-40.22Q66.88-41.01 66.88-42.15L66.88-42.15ZM16.19-30.71L2.02-30.71L12.41-39.69L1.85-39.69L1.85-48.40L16.98-48.40L16.98-51.57L13.99-51.57L7.48-51.57L1.85-51.57L5.98-63.36L18.13-63.36L17.07-60.28L40.13-60.28L40.13-51.57L29.22-51.57L29.22-48.40L40.66-48.40L40.66-39.69L34.14-39.69L41.80-30.71L29.57-30.71L23.94-37.40L16.19-30.71Z" transform="translate(257.88 75) " fill="#090e1c" stroke="#090e1c" stroke-width="0.147" data-glyph-w="85.96" data-glyph-h="88" data-glyph-ascender="75.592" data-glyph-descender="-12.408" data-kerning="0"/></g></svg>
                </g>
              </g>
    </svg>