<svg xmlns="http://www.w3.org/2000/svg" xmlns:xlink="http://www.w3.org/1999/xlink" version="1.1" preserveAspectRatio="none" viewBox="0 0 800 600" width="1600" height="1200" style="background:#9c7430;">
      <path transform="translate(0, 0)" fill="#ffffff" fill-rule="evenodd" d="M463.69570106,227.2991293845L461.84415639965795,221.9244047836188L459.7064753401404,216.55804439300846L457.28832860516343,211.21284951051592L454.5953869184433,205.90162143398805L451.6333210036961,200.63716146127177L448.4078015846379,195.43227089021389L444.92449938498487,190.2997510186613L441.1890851284531,185.2524031444609L437.2072295387587,180.3030285654596L432.9846033396179,175.46442857950427L428.52687725474664,170.7494044844417L423.83972200786127,166.17075757811892L418.9288083226778,161.7412891583827L413.79980692291235,157.47380052308L408.45838853228105,153.38109297005764L402.9102238745,149.4759677971625L397.1609836732853,145.77122630224147L391.2163386523532,142.27966978314146L385.0819595354198,139.01409953770934L378.7635170462012,135.98731686379196L372.26668190841343,133.21212305923626L365.5971248457727,130.70131942188905L358.76051658199515,128.46770724959728L351.7625278407969,126.5240878402078L344.60882934589404,124.88326249156748L337.3050918210027,123.5580325015232L329.8569859898391,122.56119916792186L322.27018257611917,121.90556378861034L314.55035230355924,121.6039276614355L306.70316589587526,121.66909208424426L298.7342940767835,122.11385835488346L290.64940757,122.95102777119999L283.3200807911712,124.05074506041768L276.14066867808396,125.46045238295703L269.1104078915742,127.17620439032882L262.22853509247807,129.19405573404376L255.49428694163157,131.5100610656126L248.9069000998707,134.1202750365461L242.4656112280315,137.02075229835498L236.16965698695,140.20754750255L230.01827403746222,143.6767153006419L224.0106990404043,147.4243103441414L218.14616865661216,151.44638728455925L212.4239195469219,155.73900077340625L206.8431883721695,160.29820546219307L201.40321179319102,165.1200560024305L196.1032264708225,170.2006070456292L190.9424690659,175.5359132433L188.34967609570566,178.42249554045515L185.70532199507323,181.56472212496777L180.37058186914845,188.44167800967344L175.1555516214338,195.817920604633L170.27753418523753,203.3445896170625L168.03281243811756,207.05531518833345L165.95383249386776,210.67282475417795L164.0677572191517,214.1535107779979L162.40174948063282,217.45376572319532L160.98297214497472,220.52998205317226L159.83858807884084,223.33855223133068L158.9957601488948,225.8358687210726L158.4816512218,227.9783239858L158.44536163957343,228.4333160589125L158.5367869904625,228.58969671247502L158.7314089348703,228.456980526025L159.0047091332,228.0446820791L162.5041188851401,221.9790461329324L166.44337209676408,215.8221068176656L170.73059360934042,209.668826956066L175.2739082641375,203.6141693709L179.98144090242363,197.75309688493397L184.7613163654672,192.18057232093435L189.52165949453652,186.99155850166755L194.1705951309,182.2810182499L194.3657659934,183.3525062847L195.9076158068,181.6798919935L200.28529825180001,177.04068059280002L204.8290893979717,172.59619024678068L209.52529678953596,168.34112237140783L214.36477179231662,164.27991405425922L219.33836577213754,160.41700238291253L224.43693009482246,156.75682444494555L229.65131612619533,153.30381732793597L234.97237523207988,150.06241811946154L240.39095877830002,147.03706390710002L245.90240096145936,144.25157925902658L251.504963541025,141.71695016008755L257.17632384960314,139.40518178970473L262.89415921980003,137.28827932730002L268.67740732435936,135.45971131874845L274.494871320725,133.85327214803752L280.3368536566781,132.46493641613284L286.19365678,131.29067872400003L292.0741548659,130.42802351190002L295.00171780280004,130.0103578663L297.94294270000006,129.76249087090002L303.79806857380004,129.27846713200003L309.62587052680004,129.13404069380002L312.59246763620007,129.06768260060002L315.45367247980005,129.1457509456L321.13899970320006,129.31554959590002L326.88873331120004,129.81323529520003L329.73822790310004,130.07476425090002L332.56039857430005,130.4670576844L338.15399549230006,131.290678724L343.65586210500004,132.387538971L346.38630247080005,132.9632930153L349.07770866410004,133.656149577L354.43514883860007,135.06723491260001L359.6618245352001,136.73984920380002L362.26150042320006,137.57713220380003L364.7967699265001,138.54322797290004L369.83998501240006,140.46370925950004L374.74072536880004,142.63400925010004L384.23752606789697,147.2916703963266L393.223650007175,152.50062823808753L401.6978163778656,158.17031129702974L409.65874437120004,164.21014809480005L417.1098304176153,170.55676909201506L424.0347556408782,177.1480245671516L430.446579716277,183.93689054053422L436.3583623191,190.87634303248754L441.78316312463556,197.91935806333618L446.7340418081719,205.01891165340476L451.2240580449973,212.12797982301782L455.26627151040003,219.19953859250006L460.027220736475,228.51675160266257L464.11336670570006,237.63928167750007L464.6082239522264,236.93433367095062L464.87203244259223,235.8600553026422L464.9421643474151,234.5171730348721L464.8559918373125,233.00641332993752L464.3642222548016,229.88416745776408L464.0333695236283,228.47413421511976ZM451.57754221,222.2344455037L448.91944466896075,217.44589027396913L446.0506083396422,212.63331987952188L442.96851734764317,207.81059450113867L439.6706558185625,202.9915743196L436.15450787799904,198.19011951568632L432.4175576515516,193.42009027017812L428.457289264819,188.69534676385587L424.2711868434,184.02974917749998L423.68948618691724,183.47842198648905L423.18188946728753,183.10146776291248L422.2609269601,182.400072476L420.25568738978353,180.4477658547495L418.3751665748963,178.68701162054433L416.61060469821285,177.1097847058416L414.9532419425078,175.7080600430984L411.9250745251311,173.39901720331892L409.2205857849625,171.69568256086248L406.76969718419866,170.53385557538576L404.50233018503593,169.8493357065453L402.3484062496709,169.57792241399784L400.2378468403,169.6554151574L399.51850117070626,169.83481606170818L398.7719611860125,170.20283893117187L397.43690100045,171.36194038604998L396.9681821641438,172.08161388170663L396.7118717418625,172.84709916300312L396.72787041588754,173.62269368506054L397.0760788685,174.372694903L397.74585037663746,175.01447159056718L398.53327332030005,175.5459157499625L399.25226448031253,176.11139282850155L399.71674063750004,176.8552682735L399.6700216123047,177.67233279190313L399.27419070688757,178.539348852925L398.8220042149516,179.22741762943434L398.60621843020004,179.5076402943L397.53692606753754,180.61059963075002L397.1277076607547,181.23316418654065L396.90823192680006,181.9375175319L397.08974082890006,183.2802930656L397.97581654440006,185.8097074431L398.4695988264251,186.9680465117875L399.20929639520006,187.9507318043L399.7212387160589,188.2613889255285L400.3242099469892,188.40718765887186L401.67771987813757,188.30887033690001L403.01878766679226,187.86510058837814L404.09637479110006,187.2851991633L404.4887597109813,186.78733049133595L404.69725708390007,186.1478409623125L404.9156349817188,185.52811248310783L405.33766147630007,185.0895269606L406.2004424820801,184.82776166519744L406.9139406496657,184.95248042062968L407.4895231570247,185.38834422444395L407.93855718212507,186.0600140741875L408.50244849742194,187.80941590165156L408.69655201930004,189.59797388340002L408.8158502089875,190.64335781545003L409.0179435379516,191.0940500304844L409.37574662060007,191.41501461290002L409.5644067050522,191.5885375197256L409.91673585494846,191.98567591744222L410.88441738736253,193.18448244463752L411.8228232904204,194.47880071266408L412.1385579036213,194.99532878641975L412.27598563670006,195.33599723970002L412.4587448521172,195.82688245421718L412.8041667832375,196.23597887921252L413.71439489310006,196.8915090135L414.36172175206866,197.60134391548695L414.46397298672974,198.48916549540155L414.1291024803792,199.5148569923748L413.46506411631253,200.63830164553752L411.58129934821415,203.0179833769547L409.67630974880007,205.3072766027L409.431705766336,206.05472001500783L409.61946623511255,206.76081160083749L409.7995418511829,207.5013020511734L409.53188331060005,208.351942057L409.25095925046105,209.34734395100784L409.3996550512876,210.5215101568375L409.76133105577037,211.68579583774846L410.11934760660006,212.65155615700002L410.9114973446126,214.97164978447503L411.32160011930006,217.32980173010003L411.548669219611,221.24191018171877L411.86797942400415,223.04661169085708L412.4340740353375,224.68066830100003L413.3291535316975,226.09177269623677L414.63541839117033,227.22761756065628L416.4350690918424,228.03589557834766L418.81030611180006,228.46429943340002L419.9054624256979,229.5932904460424L421.02479400541415,230.2095233846016L422.1533199624827,230.40551381220058L423.2760594084376,230.27377729196252L425.44425521314224,229.3971856604672L427.4095343118001,228.3198729951L428.28636228299246,227.7243922083963L428.9291224487391,226.9812753376516L429.3708871215944,226.11195305842796L429.6447286141126,225.13785604628754L429.8209313083547,222.9610605255047L429.72230903190007,220.62233417980002L429.6674782177048,218.17351926946253L429.90869720551257,215.71207924395003L430.6153987002891,213.4515432249625L431.19625310809244,212.46334206844688L431.9570154070001,211.6054403342L433.18741521755794,210.62077283762972L434.4315379793876,209.86134471453752L436.85775576340006,208.78326966310001L437.5337788382376,208.58931861851252L438.1907727540001,208.67787739730002L438.79584054691765,209.18909163936428L439.1530260967969,209.8945542566016L439.4305956577501,211.62666516546255L439.63717181747825,213.35109122161722L439.90561561582626,214.0469477729717L440.3864449566001,214.5447135228L441.0137019993464,214.96614535618357L441.4607080772016,215.33844902403752L442.02319660188755,215.993857176525L442.49236905795476,216.62730860700003L443.2866839727001,217.3551739422L444.83536476631883,218.38171168782188L446.90076041827507,219.598175079ZM363.2432098613,142.7354980986L360.77429845119997,141.78111258110002L358.2526909083,140.9711535019L353.1821519016,139.3375733832L347.9945103775,137.9655222201L345.3811725292,137.2863276187L342.7288005083,136.7242355348L337.3830705856,135.6390855396L331.9592723179,134.84083671209999L329.2288319521,134.4485432786L326.4983915863,134.1870143229L320.9965249736,133.70299058400002L315.3248597106,133.51952997330002L312.4753651187,133.44146162830003L309.7039388718,133.51952997330002L304.0459355691,133.68932862360003L298.3606083457,134.18506261430002L295.5111137538,134.43292960960002L292.67528112229996,134.85059525520003L286.9782436471,135.71325046730004L281.2978261906859,136.87957934315162L275.6351570845875,138.25047167923753L270.00212955324537,139.83946745412973L264.4106368211,141.66010664640004L258.8908693808594,143.7740815458641L253.41885781102502,146.07560344596254L248.01308235262815,148.59047149507973L242.69202324670002,151.34448484160004L232.32430306932503,157.49236700900002L227.27593425282814,160.8446095443969L222.35912279580003,164.42483604350002L212.87967400620005,172.16945982943753L208.30956528902817,176.2905230856922L203.88034553820003,180.5888868723L199.59439339870002,185.07196158300002L195.43920573690002,189.68580077150003L191.414782553,194.44211468960003L187.599192192,199.39555117880002L183.9260765605,204.47975214590002L182.5149912249,206.49196373780003L181.89553720472657,208.52024643048597L181.5423084391375,210.6283662040625L181.53489804547968,213.06986220705784L181.6857475872959,214.49058791587757L181.9528991411,216.08461162760003L182.4177107482211,217.85613790206094L183.01023728846252,219.16794530908754L183.68912693534142,220.08691036452038L184.413027862375,220.67990958420003L185.14058824308046,221.0138194839672L185.830456250975,221.15551657966253L186.93170784240002,221.12977842220002L187.82797284926679,220.86617958801625L188.45089953849063,220.37059426267348L188.84808367938166,219.7037922486971L189.06712104125,218.92654334861254L189.16113850515939,217.28378410022032L189.11371808470003,215.92847493770003L189.2342360922375,212.31391056496255L189.53638498366092,210.54249102457348L190.1598339074,208.84572433910003L190.22619200070002,208.70129790080003L190.77462212420002,208.17823998940003L191.26198177913494,208.16298559489678L191.64749712303401,208.43541572000842L191.94112015451375,208.9579351961608L192.15280287219065,209.69294885477973L192.37015536060196,211.65007804512055L192.3791705772,214.00604194243755L192.2594645109168,216.46007919813735L192.09065315068437,218.7114284636266L191.9523524854348,220.45932839031195L191.9195236599698,221.05049693016775L191.9241785041,221.40301762960001L192.11453108590626,223.53589970634846L192.0856823928,225.59797135456253L191.70186669356877,227.6406478983203L190.827318257,229.71534466170002L190.29357169135332,231.07313920318285L190.1820345930078,232.36991235470003L190.44815311351778,233.5861775254547L191.0473734044375,234.70244812465L191.93514161732128,235.69923756148907L193.06690390372344,236.55705924517503L194.39810641519824,237.25642658491097L195.8841953033,237.77785298990003L198.2590892494844,238.35128938015L200.93643704160002,238.78054329577503L203.53803414274063,238.83287348326255L204.69223726641212,238.64496053723207L205.685676016,238.27553868910002L206.97744029031037,237.6062665439041L207.89799873285781,237.10521490964533L208.498812410892,236.68096605930452L208.8313423916625,236.2421022658625L208.94704974241895,235.6972058023002L208.89739553041096,234.95485894159845L208.7338408228881,233.92364395673812L208.5078466871,232.51214312070002L208.29679532048826,230.34766013672072L208.28760856700626,228.2341807882844L208.47648974347112,226.17001257806834L208.8596421667,224.15346300875L210.19357402071876,220.25644980351566L212.2590306636,216.529601194L213.1058282431,215.162429302475L213.7755082649,213.7074305229L214.93939750497657,211.128098910218L216.45056889844375,209.06971339920005L218.2629133290453,207.51052311208832L220.330321680525,206.42877717112503L222.60668483662658,205.80272469855237L225.04589368109376,205.61061481661255L227.60183909767034,205.8306966475477L230.2284119701,206.44121931360002L232.6124240550375,206.84766263470004L233.78485202037342,206.72610778190625L234.8676233708,206.2850826236L236.4875415292,205.0437959384L236.97119932273225,204.7917358190922L237.29310926400157,204.71761663453123L237.67710793588748,204.96231210332496L238.0903822371297,205.49610441213122L238.44888671509432,205.7833562775859L238.98377686,206.0372156283L242.02356304278752,206.94085672147503L243.52113346677345,207.4578155434125L244.91697107870002,208.16652973770002L246.6403602896625,209.232132151275L247.97310282122498,210.22436251875L248.744851105025,211.393344498525L248.86711878890077,212.12228098627503L248.7852575727,212.98920174900002L248.66154897895998,214.087727809833L248.67129608628596,215.49339639159533L248.84128152123458,217.04786750825684L249.19828791036252,218.5928011737875L249.76909788022635,219.96985740215723L250.5804940573828,221.02069620733596L251.65925906838845,221.58697760329358L252.3072744573837,221.63892802718004L253.0321755398,221.51036160400002L253.8124015579141,221.06726275531406L254.4098378651625,220.3471432637375L255.1888135699,218.6745289725L255.70482703297967,216.7957349622953L255.9941373411125,214.82893109131254L256.1041649148,210.88525985170003L256.18546577717973,208.27850902000472L256.71651349576246,205.86058599771252L257.22079383550994,204.77366726649592L257.92163258056405,203.7954343093141L258.8470702946767,202.94638006672835L260.0251475416,202.24699747930003L263.02535063384846,200.9883893800297L266.0998406356125,199.88055077201253L269.1816495447203,198.7800310713391L272.203809359,197.54337969410003L274.090379708225,196.57850374281253L275.7324985523,195.26963914650003L277.30612462175156,193.31329521390938L278.6986077344875,191.348168592525L280.2089252554297,189.46867318705313L282.1360545495,187.76922290220003L284.3482857799953,186.43468113923907L286.7213499993625,185.43058804278752L289.2096870093984,184.75950523039222L291.7677366119,184.42399431960004L293.2926004612093,184.22748165745787L294.75653440687495,183.77114778468757L295.99028871660306,182.99131820739848L296.82461365809996,181.82431843170005L297.41207795409997,180.34687500290005L298.0315319742766,179.7839900373766L298.8326778692125,179.49739382403754L300.6265420588,179.47055783050004L303.35048689432347,179.9412550589266L305.98276241538747,180.64817002183753L311.2496921024,182.07023371840003L314.7112303207672,182.61674262874536L318.4080714102125,182.88385225128752L322.07051363515154,182.75391115051096L325.42885526,182.10926789090004L326.3984885010625,181.47874402337192L326.75552919757496,180.44787592422506L326.6567544439023,179.84543836361684L326.347744076825,179.21866543609067L325.80946893725394,178.59280737197543L325.0228998661,177.99311440160005L323.63306985727183,177.5676114259813L322.03556585260003,177.61911823640006L320.3864635511781,177.7858978374688L318.84183865209997,177.70621323380004L317.53263860582183,177.2315211017422L316.443920643225,176.44540946228756L315.6885789100656,175.3650777476891L315.3795075521,174.00772539020005L315.46523025435465,173.21926560132505L315.74911237288745,172.48075735505006L316.2141374481265,171.85239866427506L316.8432890205,171.39438754190004L317.9237427169047,171.11797680795786L319.0653092895875,171.20312009671255L321.40443207609997,171.70861263050006L322.75257862046124,171.7964966975739L324.0853783309906,171.67869659674068L326.7269854589249,171.06674445657507L329.3733498766468,170.3541573404469L332.0685680009,170.02233637880005L332.91274297192655,170.10808957650158L333.6958050666375,170.39218516316254L334.20440813600464,170.94561654001723L334.22520603099997,171.83937710830006L333.66970096373745,172.75131296313756L332.7614245626,173.36756496140006L330.72188904989997,174.19118600100006L329.81190490371245,174.80890178070007L329.2444456211,175.71937385400005L329.1910938361317,176.53824522767565L329.44595953660314,177.27336085544852L329.93978756179183,177.92897485221278L330.60332275097505,178.50934133286256L332.16249397843444,179.46134820539535L333.5694319332,180.16341439220005L338.38063765637503,182.23686084223755L343.3572506855,183.88727444790004L344.1350065724,184.07146694935005L344.9127624593,184.03170088610005L345.4519829577406,183.72997893093128L345.846655036175,183.24418645610004L346.1540491445,182.00582733380006L346.00733554773433,181.0558636562485L345.6756365679,180.06070572583755L344.7566257693,178.24293310560006L343.64842121588595,176.99762102132664L342.2818592333125,175.97260804806257L340.97677607240786,174.91319621029226L340.053007984,173.56468753250005L339.84423615207965,172.18781808877503L340.03983395081246,170.76154602047504L340.313744058114,169.3155129023375L340.3399091519,167.87936030910004L340.0720981340578,166.94805984524848L339.60265121893747,166.09525466263756L338.2886633874,164.62586203190003L336.6258381347046,163.28613604290314L334.86512249631244,162.06131689917504L333.11428738283905,160.82185994075942L331.48110370489997,159.43822050770004L330.01622440036715,157.82473688868754L328.6911362260625,156.05664135205004L326.2934621807,152.38084212120003L325.5591318107047,151.08911596619066L324.99460009103746,149.71871155725003L324.67744743955154,148.2941472339844L324.6852542741,146.83994133600004L324.9618784761781,145.7386897445969L325.45788692584995,144.71355478955005L326.1423572395719,143.8011310075782L326.98436703379997,143.03801293540005L328.03990594977495,142.4020913737063L329.19736065049995,141.98921351325004L330.411536883125,141.8065152886938L331.63724039479996,141.86113263470006L332.64485905085064,142.13272413500204L333.6986983221367,142.62094957473755L335.92169825746873,144.07967642278754L340.66560052855,147.75285304515006L343.09314105251485,149.29679942057507L344.30038576527545,149.84893950584188L345.4954999609062,150.19864890623757L346.6726485261706,150.30402115933168L347.825996347832,150.1231498026938L348.949708312654,149.6141283738934L350.03794930739997,148.73505041050007L351.02746558007493,147.42447806908757L351.958430594,146.05535446900006L352.92735100397385,145.07317235139163L354.0394704104156,144.35053698541412L355.2639807877308,143.8419796592014L356.570074110325,143.50203166088755L359.3037774889719,143.14608880049224L361.9941163416,142.91895870930006L363.39153971679997,142.78819423140007ZM242.3777981582,347.3487268826L243.37609711964998,346.68612180454994L244.8252407734,346.4275204118L265.0944057395578,346.04025872707655L285.3895528267625,345.99058164348753L325.9655751318,346.1113436146L326.3422548963,346.109391906L346.6575899696,346.0703577335L356.814281652,345.9122693349L358.8551894598031,345.7480818468531L361.058028092575,345.620488895525L363.1243691034093,345.9364217291344L364.0130941109418,346.38787633035895L364.7557840454,347.1028115959L365.49063283801564,348.43616403640783L365.867038143525,349.92083488621245L365.95764011732183,351.4812564270109L365.83507891479996,353.0418609405L364.9968200605609,356.63428561850156L363.50425088991244,360.0089728030875L361.41958211525775,363.0535772665546L358.805024449,365.65575378119996L356.02823100336246,367.63509128099054L353.119697225575,369.444996075825L350.32094705792497,371.36614826224684L347.8735044427,373.6792279368L346.3732504193547,375.825253551325L345.1547743286875,378.15644752159994L342.8810337811,382.9381336519L341.0440185336531,385.8857930885094L338.912966183725,388.63492716345L334.1822684413,393.7740199355L332.7106801383875,395.19071643336247L330.99903167459996,396.2429313456L329.55574314673436,396.5808818921454L328.058294704525,396.6161956200875L325.0150930316,396.459571003L323.3824887671468,396.5924091712563L321.77330500617495,396.91334325820003L318.61348874299995,397.8648012127L316.37170742405,398.673052546875L314.30411609989994,399.8165098373L312.98439512433276,401.0385538953172L311.88350947828746,402.4730292389375L309.95766099299993,405.58771224019995L308.23333023510816,408.0575537614398L306.27774487679056,410.3478075937687L304.11288451165893,412.4424636273757L301.760728733325,414.32551175245L299.2432571354003,415.9809418591804L296.5824493114968,417.3927438377562L293.80028485522615,418.54490757836635L290.9187433601999,419.42142297119995L289.53571383608744,419.82615854722496L288.3737153136999,420.59244814589994L287.7418496464999,421.7795749167874L287.2768550666999,423.07502151639994L286.7531910583018,423.94366431894537L286.0736571950999,424.64924987096015L284.3392896231374,425.66573174286873L282.2583717885186,426.31343217106786L280.0155231289499,426.78131619449994L277.79536308213744,427.258348852107L275.7825110857874,427.93349518283117L274.16158657760616,428.99572022561483L273.555790705862,429.7310388386983L273.1172089952999,430.63398901939996L272.7078381112999,432.75086098632494L272.4628986789374,433.77627040041864L271.9617974895999,434.67597758089994L271.00616165885776,435.4921577313515L269.9347041194124,436.22124288441245L269.1307526433108,437.0110749684171L268.9488816077786,437.4749717121279L268.9776350025999,438.00949591169996L269.35275949933117,438.6613970877484L269.9410471724,439.1949149375374L270.5253094464437,439.72953062343277L270.8883577460999,440.38472530779995L270.8624061204765,441.08148528675935L270.5343665943125,441.72701291435L269.5611958812999,442.94341531469996L268.9908395312171,444.24422911299064L268.9432361380374,445.672391899025L269.23047275576397,447.1569102715968L269.6646364383999,448.62679082949995L270.42555883839987,451.596559465375L270.7144422103186,452.8833758533375L270.9273919185999,453.73636400859994L270.9351377622062,454.42345693078585L270.4960643125749,454.84029919936245L269.6851903699561,455.04086775598273L268.5775347345999,455.0791395422999L268.0086197708886,454.96668043316436L267.2662038189439,454.6437598537183L266.3761803724369,454.10461702337784L265.36444292503904,453.34349116155926L264.25688497042137,452.35462148767857L263.0794000022552,451.1322472211519L261.85788151421184,449.6706075813953L260.6182229999624,447.9639417878249L259.38631795317826,446.0064890598569L258.18805986753057,443.79248861690735L257.04934223669056,441.31617967839236L255.99605855432958,438.571801463728L255.05410231411878,435.5535931923305L254.24936700972938,432.2557940836159L253.60774613483267,428.6726433570003L253.1551331830999,424.7983802318999L252.87392322811746,418.89034094522066L252.99609942562176,412.98429148647807L253.42900898297762,407.0794770933527L254.0799991075499,401.1751430035249L255.665609887803,389.3648966844843L257.0117094252999,377.5475144307999L257.2328929042577,373.66099165941864L257.0949010054124,369.7748348333999L256.8132793619064,367.8802670531163L256.34834196106084,366.04383884303115L255.66891483191299,364.28489956443036L254.7438240034999,362.6227985785999L253.3722874510837,360.87197108896964L251.7736589267952,359.3065406709515L248.2448782472124,356.4583268878374L244.85698653397333,353.5310689054296L243.43446921761455,351.86683323829425L242.3094883562999,349.9776783998999L242.02292263841557,349.1716837288578L241.95061793297498,348.4626645800875L242.07482588967187,347.8539144618984ZM432.4742181926,414.2532985333L426.54592516403585,420.100549434284L420.3931646780242,425.5955350352035L414.01510763959266,430.7373890747595L407.41092495376876,435.5252452916531L400.57978752558,439.9582374245854L393.52086626005394,444.0354992122574L386.2333320622181,447.7561643933702L378.71635583709997,451.119366706625L370.96910848972726,454.1242398907227L362.99076092512735,456.7699176843644L354.7804840483278,459.05553382625124L346.3374487643563,460.9802220550843L337.66082597824015,462.54311610956466L328.74978659500704,463.7433497283933L319.60350151968447,464.58005665027144L310.2211416573,465.0523706139L303.4592323489501,464.65932581303684L296.8195638026925,464.08250532154915L290.3020709774563,463.3218608946863L283.9066888321702,462.37734428769784L277.6333523257631,461.24890725583316L271.4819964171638,459.93650155434176L265.45255606530145,458.44007893847305L259.5449662291047,456.75959116347656L253.75916186750257,454.8949899846017L248.0950779394239,452.8462271570978L242.5526494037976,450.61325443621456L237.13181121955253,448.19602357720134L231.83249834561758,445.5944863353076L226.6546457409217,442.8085944657827L221.5981883643937,439.83829972387616L216.66306117496248,436.68355386483745L211.84919913155696,433.34430864391607L207.15653719310603,429.8205158163614L202.58501031853854,426.11212713742293L198.1345534667834,422.2190943623502L193.80510159676948,418.1413692463925L189.5965896674257,413.87890354479936L185.50895263768092,409.4316490128203L181.54212546646406,404.79955740570466L177.69604311270396,399.98258047870195L173.97064053532955,394.9806699870617L170.36585269326972,389.79377768603325L166.88161454545332,384.42185533086615L163.51786105080927,378.86485467680984L160.27452716826645,373.12272747911373L157.15154785675372,367.1954254930273L154.1488580752,361.0829004738L153.84436103429218,360.7637351227969L153.66410244553748,360.88772961135L153.69792189656405,361.5181924879781L154.035658975,362.7184323012L154.27831124885623,363.4455352501781L154.431123935075,363.93898208227495L154.70509503329998,364.7774849001L157.91788570032088,372.96564971869054L161.46718600397966,380.9581252522187L165.35558043343298,388.7518924514062L169.58565347783747,396.343932266975L174.15998962634978,403.7312256496469L179.08117336812654,410.9107535501438L184.35178919232436,417.8794969191875L189.97442158809997,424.63443670749996L193.71925107571616,428.772291519416L197.60197335197967,432.76296767899055L205.76837966893748,440.30104580062493L214.44820733595154,447.24519459142186L223.61602315,453.5919375704L230.9967371399207,458.05056255621855L238.54482539212188,462.04631239581715L246.2600591907496,465.58764957581036L254.14220981994998,468.6830365828125L262.1910485638691,471.3409359034381L270.4063467066531,473.56981002430155L278.78787553244797,475.3781214320174L287.33540632539996,476.7743326132L296.9734505004103,477.8407736515717L306.5450069765265,478.361315688561L316.0520198385138,478.3292802212166L325.4964331711375,477.7379887465875L334.88019105916266,476.5807627617225L344.20523758735465,474.8509237636703L353.4735168404787,472.5417932494799L362.6869729033,469.6466927162L374.1602445301541,465.2738895428232L379.708853039641,462.8517390891669L385.1297923591766,460.26470737604217L390.4213242482674,457.50700789233167L395.58171046642013,454.5728541269182L400.6092127731413,451.4564595686842L405.5020929279375,448.1520377065125L410.2586126903154,444.6538020292857L414.87703381978145,440.9559660258865L419.35561807584236,437.0527431851976L423.69262721800465,432.93834699610153L427.886323005775,428.60699094748105L431.93496719865993,424.0528885282189L435.83682155616606,419.2702532271976L439.5901478378,414.2532985333L441.17269001365776,411.9450561990156L442.35166306434996,410.03800434501244L443.1864187541047,408.50334764521557L443.73630884715,407.31229077355L444.060685107714,406.4360384039406L444.218899300025,405.8457952103125L444.2703031883109,405.5127658665906L444.2742485368,405.40815504669996L444.3680830280093,404.6773011576734L443.98563962392495,404.12539455318745L443.34740040822805,403.91674470305776L442.6738474646,404.2156610771ZM201.1635671328,247.8779451221ZM380.6886234572,379.6150964137L380.6886234572,354.1796022327L385.4814513985,354.1796022327L385.4814513985,379.6150964137L385.3230258548437,381.34958296925L384.847749223875,382.9547797133L384.0556215055937,384.43068664585L382.9466427,385.7773037669L381.6118619701624,386.88628257245L380.14232847905,387.6784102907L378.53804222666247,388.15368692165L376.799003213,388.3121124653L375.39957757738125,388.2046744529375L374.07117028892503,387.88236041585L372.8137813476313,387.34517035403746L371.6274107535,386.5931042675L374.2350587824,382.5286696304L375.4296238012,383.2716308006L376.799003213,383.519284524L378.29949341955,383.23156916885L379.5668977688,382.3684231034L380.4081920351,381.11922858677497ZM394.2810684757,387.7002620899L394.2810684757,364.9452552681L389.4882405343,364.9452552681L389.4882405343,387.7002620899ZM391.891938438,353.5677518572L393.031873959025,353.78991181497497L394.0042790201,354.4563916883L394.64890709427505,355.4215128163L394.863783119,356.5687322703L394.64890709427505,357.723235657425L394.0042790201,358.6810728524L393.031873959025,359.34755272565L391.891938438,359.5697126834L390.7301511179,359.34755272565L389.7504621238,358.6810728524L389.10583404962495,357.723235657425L388.8909580249,356.5687322703L389.10583404962495,355.4215128163L389.7504621238,354.4563916883L390.7301511179,353.78991181497497ZM408.2268411524,369.1553685661L406.9130017300438,369.28556886921876L405.69567442047503,369.676169778575L404.57485922369375,370.32717129416875L403.5505561397,371.238573416L402.7092618734313,372.34937320481873L402.108337397525,373.569431989275L401.74778271198124,374.89874976936875L401.6275978168,376.3373265451L401.74778271198124,377.7686193877437L402.108337397525,379.090653234775L402.7092618734313,380.3034280861938L403.5505561397,381.406943942L404.57485922369375,382.33109294662495L405.69567442047503,382.99119937849997L406.9130017300438,383.38726323762495L408.2268411524,383.519284524L409.53885959149375,383.38726323762495L410.750723951275,382.99119937849997L411.86243423174375,382.33109294662495L412.8739904329,381.406943942L413.7152846992125,380.3034280861938L414.31620917515,379.090653234775L414.6767638607125,377.7686193877437L414.7969487559,376.3373265451L414.6767638607125,374.89874976936875L414.31620917515,373.569431989275L413.7152846992125,372.34937320481873L412.8739904329,371.238573416L411.86243423174375,370.32717129416875L410.750723951275,369.676169778575L409.53885959149375,369.28556886921876ZM414.7969487559,366.7371027963L414.7969487559,364.9452552681L419.5897766972,364.9452552681L419.5897766972,387.7002620899L414.7969487559,387.7002620899L414.7969487559,385.9375502938L413.28371166652494,386.9764212438313L411.65757361499993,387.718471922425L409.91853460132495,388.16370232958127L408.0665946255,388.3121124653L405.8276957068563,388.09177349079374L403.758148231425,387.430756567275L401.85795219920624,386.3290616947437L400.1271076102,384.7866888732L398.68670985122503,382.9474957802313L397.6578543091,380.926204361225L397.040540983825,378.72281461618127L396.8347698754,376.3373265451L397.040540983825,373.9390915911375L397.6578543091,371.72659692975003L398.68670985122503,369.69984256093744L400.1271076102,367.8588284847L401.85795219920624,366.3292025459938L403.758148231425,365.23661258977495L405.8276957068563,364.5810586160437L408.0665946255,364.3625406248L409.91853460132495,364.5109507605187L411.65757361499993,364.956181167675L413.28371166652494,365.69823184626875ZM427.6694509707,375.0699221958L427.6694509707,387.7002620899L422.8766230294,387.7002620899L422.8766230294,364.9452552681L427.6694509707,364.9452552681L427.6694509707,366.7516706624L429.1244165957125,365.70642627095003L430.70685104894994,364.95982313419995L432.41675433041246,364.51186125214997L434.2541264401,364.3625406248L436.28179130053746,364.5473704257249L438.15467258384996,365.1018598285L439.87277029003747,366.02600883312493L441.4360844191,367.3198174396L442.7426399085,368.87675812724376L443.6758938295,370.590303375275L444.2358461821,372.46045318369374L444.4224969663,374.4872075525L444.4224969663,387.7002620899L439.6296690249,387.7002620899L439.6296690249,375.0699221958L439.5213205209,373.883551601675L439.1962750089,372.7864091873L438.6545324888999,371.77849495267503L437.8960929609,370.8598088978L436.9692124814251,370.09499592842496L435.95128283890006,369.5487009503L434.84230403332504,369.220923963425L433.6422760647,369.1116649678L432.45499497890626,369.220923963425L431.355121089625,369.5487009503L430.3426543968563,370.09499592842496L429.4175949006,370.8598088978L428.6527819312688,371.77849495267503L428.106486953175,372.7864091873L427.77870996631873,373.883551601675ZM452.8687294795,392.4202507008L455.0102057937,387.1029795804L446.0655360187,364.9452552681L451.2225606119,364.9452552681L457.5887180902,380.70768637L463.9694434346,364.9452552681L469.1410358943,364.9452552681L457.3119286347,394.2266660951L456.6026556547937,395.6060609148187L455.66940173387496,396.772400693075L454.51216687194375,397.7256854298687L453.130951069,398.4659151252L451.64958118665,398.93937077292503L450.16274835449997,399.1069012329L448.67045257254995,398.96850650512505L447.1726938408,398.5241865896L446.2549182778,398.072582741L448.0904694042,393.512840657L448.9791092353,394.0809874342L450.12268672275,394.299505425475L451.2516963443,394.0518517021L452.23138533835004,393.40358166137503ZM487.5393118126,364.9452552681L487.5393118126,377.6047308943L487.43096330860624,378.7901909967938L487.10591779662496,379.88460193627503L486.5641752766562,380.8879637127438L485.8057357487,381.8002763262L484.87885526918745,382.56508929557504L483.86092562665,383.1113842737L482.7519468210875,383.439161260575L481.5519188525,383.5484202562L480.36463776670627,383.439161260575L479.264763877425,383.1113842737L478.25229718465624,382.56508929557504L477.3272376884,381.8002763262L476.562424719025,380.8879637127438L476.0161297409,379.88460193627503L475.688352754025,378.7901909967938L475.5790937584,377.6047308943L475.5790937584,364.9452552681L470.7862658171,364.9452552681L470.7862658171,378.1874455376L470.97200610965626,380.2032740068313L471.52922698732505,382.06978184872503L472.45792845010624,383.7869690632813L473.758110498,385.3548356505L475.3287085601125,386.648644256975L477.05409019934996,387.5727932616L478.93425541571247,388.127282664375L480.9692042092,388.3121124653L482.80020287751245,388.16188134631875L484.50555370085,387.711187989375L486.08525667921253,386.9600323944687L487.5393118126,385.9084145616L487.5393118126,387.7002620899L492.332139754,387.7002620899L492.332139754,364.9452552681ZM506.2995935126,369.1553685661L504.98575409025005,369.28556886921876L503.7684267807,369.676169778575L502.64761158395004,370.32717129416875L501.6233085,371.238573416L500.7820142336875,372.34937320481873L500.18108975775004,373.569431989275L499.8205350721875,374.89874976936875L499.700350177,376.3373265451L499.8205350721875,377.7686193877437L500.18108975775004,379.090653234775L500.7820142336875,380.3034280861938L501.6233085,381.406943942L502.64761158395004,382.33109294662495L503.7684267807,382.99119937849997L504.98575409025005,383.38726323762495L506.2995935126,383.519284524L507.6116119517312,383.38726323762495L508.823476311525,382.99119937849997L509.9351865919812,382.33109294662495L510.9467427931,381.406943942L511.78803705941255,380.3034280861938L512.3889615353501,379.090653234775L512.7495162209125,377.7686193877437L512.8697011161,376.3373265451L512.7495162209125,374.89874976936875L512.3889615353501,373.569431989275L511.78803705941255,372.34937320481873L510.9467427931,371.238573416L509.9351865919812,370.32717129416875L508.823476311525,369.676169778575L507.6116119517312,369.28556886921876ZM512.8697011161,366.7371027963L512.8697011161,364.9452552681L517.6625290574,364.9452552681L517.6625290574,387.7002620899L512.8697011161,387.7002620899L512.8697011161,385.9375502938L511.356464026725,386.9764212438313L509.7303259752,387.718471922425L507.991286961525,388.16370232958127L506.1393469857,388.3121124653L503.9004480670625,388.09177349079374L501.83090059165,387.430756567275L499.93070455946247,386.3290616947437L498.1998599705,384.7866888732L496.75946221152503,382.9474957802313L495.7306066694,380.926204361225L495.113293344125,378.72281461618127L494.9075222357,376.3373265451L495.113293344125,373.9390915911375L495.7306066694,371.72659692975003L496.75946221152503,369.69984256093744L498.1998599705,367.8588284847L499.93070455946247,366.3292025459938L501.83090059165,365.23661258977495L503.9004480670625,364.5810586160437L506.1393469857,364.3625406248L507.991286961525,364.5109507605187L509.7303259752,364.956181167675L511.356464026725,365.69823184626875ZM525.742203331,375.0699221958L525.742203331,387.7002620899L520.9493753895,387.7002620899L520.9493753895,364.9452552681L525.742203331,364.9452552681L525.742203331,366.7516706624L527.197168955975,365.70642627095003L528.7796034092,364.95982313419995L530.489506690675,364.51186125214997L532.3268788004,364.3625406248L534.3545436608438,364.5473704257249L536.227424944175,365.1018598285L537.9455226503937,366.02600883312493L539.5088367795,367.3198174396L540.8153922688125,368.87675812724376L541.74864618975,370.590303375275L542.3085985423124,372.46045318369374L542.4952493265,374.4872075525L542.4952493265,387.7002620899L537.702421385,387.7002620899L537.702421385,375.0699221958L537.5940728810061,373.883551601675L537.2690273690249,372.7864091873L536.7272848490562,371.77849495267503L535.9688453211,370.8598088978L535.041964841625,370.09499592842496L534.0240351991,369.5487009503L532.915056393525,369.220923963425L531.7150284249,369.1116649678L530.52774733915,369.220923963425L529.4278734499,369.5487009503L528.41540675715,370.09499592842496L527.4903472609,370.8598088978L526.7255342915688,371.77849495267503L526.179239313475,372.7864091873L525.8514623266187,373.883551601675ZM544.1382883789,393.2360512014ZM572.1895112019,387.7002620899L558.4083098875,387.7002620899L558.4083098875,354.1796022327L572.1895112019,354.1796022327L575.1731922740437,354.48643791207496L577.9328924051749,355.4069449502L580.4686115952939,356.94112334707495L582.7803498444,359.0889731027L584.6860088263313,361.6647539245063L586.0471938134251,364.4972933860249L586.8639048056814,367.5865914872562L587.1361418031,370.9326482282L586.8639048056814,374.2796154608188L586.0471938134251,377.371645036975L584.6860088263313,380.20873695666876L582.7803498444,382.7908912199L580.4686115952939,384.938740975525L577.9328924051749,386.47291937239993L575.1731922740437,387.39342641052497ZM572.1895112019,358.9578623079L563.2011378288,358.9578623079L563.2011378288,382.9074341485L572.1895112019,382.9074341485L574.2117131125563,382.68891615725624L576.082773412625,382.033362183525L577.8026921021062,380.9407722273062L579.371469181,379.4111462886L580.6780246703124,377.55920631278747L581.6112785912501,375.52880997745L582.1712309438126,373.3199572825875L582.357881728,370.9326482282L582.1712309438126,368.5462496654875L581.6112785912501,366.34012844555L580.6780246703124,364.3142845683875L579.371469181,362.468718034L577.8026921021062,360.9327186538312L576.082773412625,359.835576239425L574.2117131125563,359.17729079078117ZM595.0039276027,387.7002620899L595.0039276027,364.9452552681L590.2110996612,364.9452552681L590.2110996612,387.7002620899ZM592.6147975649,353.5677518572L593.75473308595,353.78991181497497L594.7271381471,354.4563916883L595.371766221275,355.4215128163L595.586642246,356.5687322703L595.371766221275,357.723235657425L594.7271381471,358.6810728524L593.75473308595,359.34755272565L592.6147975649,359.5697126834L591.45301024485,359.34755272565L590.4733212507,358.6810728524L589.828693176525,357.723235657425L589.6138171518,356.5687322703L589.828693176525,355.4215128163L590.4733212507,354.4563916883L591.45301024485,353.78991181497497ZM608.9497002794,369.1553685661L607.6358608570499,369.28556886921876L606.4185335474999,369.676169778575L605.2977183507501,370.32717129416875L604.2734152668,371.238573416L603.4321210004875,372.34937320481873L602.83119652455,373.569431989275L602.4706418389876,374.89874976936875L602.3504569438,376.3373265451L602.4706418389876,377.7686193877437L602.83119652455,379.090653234775L603.4321210004875,380.3034280861938L604.2734152668,381.406943942L605.2977183507501,382.33109294662495L606.4185335474999,382.99119937849997L607.6358608570499,383.38726323762495L608.9497002794,383.519284524L610.2617187185313,383.38726323762495L611.473583078325,382.99119937849997L612.5852933587812,382.33109294662495L613.5968495599,381.406943942L614.4381438261687,380.3034280861938L615.039068302075,379.090653234775L615.3996229876187,377.7686193877437L615.5198078828,376.3373265451L615.3996229876187,374.89874976936875L615.039068302075,373.569431989275L614.4381438261687,372.34937320481873L613.5968495599,371.238573416L612.5852933587812,370.32717129416875L611.473583078325,369.676169778575L610.2617187185313,369.28556886921876ZM620.3126358241,364.9452552681L620.3126358241,387.1029795804L620.0941178328624,389.49028863478753L619.43856385915,391.69914132965005L618.3459739029624,393.7295376649875L616.8163479643,395.5814776408L614.9753338880562,397.1111035795062L612.948579519225,398.20369353572505L610.7360848578062,398.8592475094563L608.3378499038,399.0777655007L606.7353846346999,398.9748799464875L605.1911908298999,398.66622328385L603.7052684894,398.15179551278743L602.2776176132,397.4315966333L599.8375000443,395.53777404252503L597.9655292526,393.0903725406L602.1173710865,390.701242503L603.2873528312188,392.27548253159375L604.7140932156751,393.399939694875L606.3975922398688,394.07461399284375L608.3378499038,394.2995054255L609.7764266795688,394.16657364749375L611.105744459675,393.767778313475L612.3258032441188,393.10311942344373L613.4366030329,392.1725969774L614.3480051547313,391.074544071375L614.999006670325,389.86359020320003L615.3896075796812,388.539735372875L615.5198078828,387.1029795804L615.5198078828,385.9375502938L614.0065707933875,386.9764212438313L612.38043274185,387.718471922425L610.6413937281875,388.16370232958127L608.7894537524,388.3121124653L606.5505548337626,388.09177349079374L604.4810073583501,387.430756567275L602.5808113261626,386.3290616947437L600.8499667372,384.7866888732L599.4095689781814,382.9474957802313L598.380713436025,380.926204361225L597.7634001107313,378.72281461618127L597.5576290023,376.3373265451L597.7634001107313,373.9390915911375L598.380713436025,371.72659692975003L599.4095689781814,369.69984256093744L600.8499667372,367.8588284847L602.5808113261626,366.3292025459938L604.4810073583501,365.23661258977495L606.5505548337626,364.5810586160437L608.7894537524,364.3625406248L610.6413937281875,364.5109507605187L612.38043274185,364.956181167675L614.0065707933875,365.69823184626875L615.5198078828,366.7371027963L615.5198078828,364.9452552681ZM628.4068779637,387.7002620899L628.4068779637,364.9452552681L623.6140500224,364.9452552681L623.6140500224,387.7002620899ZM626.0177479261,353.5677518572L627.1576834471,353.78991181497497L628.1300885081,354.4563916883L628.774716582275,355.4215128163L628.989592607,356.5687322703L628.774716582275,357.723235657425L628.1300885081,358.6810728524L627.1576834471,359.34755272565L626.0177479261,359.5697126834L624.85596060595,359.34755272565L623.8762716119,358.6810728524L623.231643537725,357.723235657425L623.016767513,356.5687322703L623.231643537725,355.4215128163L623.8762716119,354.4563916883L624.85596060595,353.78991181497497ZM635.1415569293,364.9452552681L630.9605793635,364.9452552681L630.9605793635,369.7380832094L635.1415569293,369.7380832094L635.1415569293,380.5183041109L635.2735782156813,381.95050744517494L635.6696420748251,383.2752727671L636.3297485067313,384.492600076675L637.2538975114,385.6024893739L638.3628763169563,386.52026493715005L639.5774721516251,387.1758189109L640.8976850154063,387.56915129515L642.3235149083,387.7002620899L645.3390631875,387.7002620899L645.3390631875,382.9074341485L642.3235149083,382.9074341485L641.4130232780751,382.7326197555L640.6336424426,382.2081765765L640.109199263675,381.44336360715L639.9343848707,380.5183041109L639.9343848707,369.7380832094L645.3390631875,369.7380832094L645.3390631875,364.9452552681L639.9343848707,364.9452552681L639.9343848707,357.7632972891L635.1415569293,357.7632972891ZM658.5963903803,369.1553685661L657.28255095795,369.28556886921876L656.0652236484,369.676169778575L654.94440845165,370.32717129416875L653.9201053677,371.238573416L653.0788111013875,372.34937320481873L652.47788662545,373.569431989275L652.1173319398874,374.89874976936875L651.9971470447,376.3373265451L652.1173319398874,377.7686193877437L652.47788662545,379.090653234775L653.0788111013875,380.3034280861938L653.9201053677,381.406943942L654.94440845165,382.33109294662495L656.0652236484,382.99119937849997L657.28255095795,383.38726323762495L658.5963903803,383.519284524L659.9084088194312,383.38726323762495L661.120273179225,382.99119937849997L662.2319834596813,382.33109294662495L663.2435396608,381.406943942L664.0848339271125,380.3034280861938L664.68575840305,379.090653234775L665.0463130886126,377.7686193877437L665.1664979838,376.3373265451L665.0463130886126,374.89874976936875L664.68575840305,373.569431989275L664.0848339271125,372.34937320481873L663.2435396608,371.238573416L662.2319834596813,370.32717129416875L661.120273179225,369.676169778575L659.9084088194312,369.28556886921876ZM665.1664979838,366.7371027963L665.1664979838,364.9452552681L669.9593259251,364.9452552681L669.9593259251,387.7002620899L665.1664979838,387.7002620899L665.1664979838,385.9375502938L663.6532608944251,386.9764212438313L662.0271228429001,387.718471922425L660.2880838292251,388.16370232958127L658.4361438534,388.3121124653L656.1972449347625,388.09177349079374L654.12769745935,387.430756567275L652.2275014271626,386.3290616947437L650.4966568382,384.7866888732L649.0562590792251,382.9474957802313L648.0274035371001,380.926204361225L647.410090211825,378.72281461618127L647.2043191034,376.3373265451L647.410090211825,373.9390915911375L648.0274035371001,371.72659692975003L649.0562590792251,369.69984256093744L650.4966568382,367.8588284847L652.2275014271626,366.3292025459938L654.12769745935,365.23661258977495L656.1972449347625,364.5810586160437L658.4361438534,364.3625406248L660.2880838292251,364.5109507605187L662.0271228429001,364.956181167675L663.6532608944251,365.69823184626875ZM678.0390001985,387.7002620899L678.0390001985,354.1796022327L673.2461722572,354.1796022327L673.2461722572,387.7002620899ZM222.6888880196,290.6192725185L202.5560970928,290.6192725185L202.5560970928,296.6358012108L232.3036796345,296.6358012108L232.3036796345,306.5128144151L202.5560970928,306.5128144151L202.5560970928,311.5095924816L233.7167626445,311.5095924816L233.7167626445,321.2554948912L202.5560970928,321.2554948912L202.5560970928,325.4801760553L186.5314444014,325.4801760553L186.5314444014,321.2554948912L156.7984297259,321.2554948912L156.7984297259,311.5095924816L186.5314444014,311.5095924816L186.5314444014,306.5128144151L158.1969448699,306.5128144151L158.1969448699,296.6358012108L186.5314444014,296.6358012108L186.5314444014,290.6192725185L159.2312633618,290.6192725185L159.2312633618,280.7422593142L186.5314444014,280.7422593142L186.5314444014,273.69141213L156.4050973416,273.69141213L156.4050973416,263.9455097204L186.5314444014,263.9455097204L186.5314444014,258.3077455462L159.2312633618,258.3077455462L159.2312633618,248.5618431367L186.5314444014,248.5618431367L186.5314444014,245.2258018036L202.5560970928,245.2258018036L202.5560970928,248.5618431367L218.0708744713,248.5618431367L225.383943245,248.5618431367L232.6824441526,248.5618431367L232.6824441526,263.9455097204L235.2463885832,263.9455097204L235.2463885832,273.69141213L232.6824441526,273.69141213L232.6824441526,280.4800377247L232.4985248433,282.51862848470626L231.9467669154,284.39515173452503L231.0271703689,286.1096074741563L229.7397352038,287.6619957036L228.1900784492375,288.9558043101187L226.49838500035,289.879953314775L224.66465485713752,290.43444271756874ZM202.5560970928,258.3077455462L202.5560970928,263.9455097204L218.0708744713,263.9455097204L218.0708744713,258.3077455462ZM202.5560970928,273.69141213L202.5560970928,280.7422593142L216.0168053536,280.7422593142L216.91546059259375,280.61387999434373L217.557357191875,280.228742034775L217.94249515144375,279.58684543549373L218.0708744713,278.6881901965L218.0708744713,273.69141213ZM124.1081382355,292.5422308415L136.0246526914,258.5699671357L122.6950552254,258.5699671357L122.6950552254,247.2798709214L155.2542359211,247.2798709214L143.7164859833,281.2521346271L154.1033745005,281.2521346271L155.5164575106,281.2521346271L146.0182088244,314.204647707L156.5362081364,328.4374528702L235.2463885832,328.4374528702L235.2463885832,337.9211336902L147.4312918345,337.9211336902L141.5313060708,329.8359680141L139.2295832297,337.9211336902L124.2246811641,337.9211336902L137.0444033172,292.5422308415ZM359.189793218,263.4356344075L359.189793218,269.9766062788L341.6355145879,269.9766062788L341.6355145879,263.173412818L341.34415726625,261.64014491275L340.4700853013,260.361814664L339.191755052475,259.49866859855L337.6584871472,259.2109532434L310.9847243491,259.2109532434L310.9847243491,269.9766062788L293.430445719,269.9766062788L293.430445719,249.4650508338L315.0928625846,249.4650508338L313.1699042616,245.2258018036L332.3994874913,245.2258018036L334.3224458142,249.4650508338L345.2192096444,249.4650508338L347.979820267125,249.73819832285L350.6093200951,250.55764079L353.0130179988,251.8468969384L355.0962228487,253.5586212032L356.807947113425,255.64182605302503L358.0972032618,258.0455239567L358.91664572894996,260.67502378475ZM293.430445719,287.2832311855L293.430445719,274.7111627558L358.4176963156,274.7111627558L358.4176963156,287.2832311855ZM346.7634034492,305.2308421998L346.7634034492,322.1441347223L347.03290897172496,323.57542756495L347.8414255393,324.7809184833L349.04691645765,325.60036095045L350.4782093003,325.87350843950003L360.4717654333,325.87350843950003L355.2127657773,337.6589121007L343.2962513214,337.6589121007L340.681319359475,337.40397444425L338.2266339245,336.6391614749L336.0050343468,335.415460723925L334.0602242247,333.8129954548L332.4614009221,331.875469265775L331.2486260707,329.6465857551L330.472887201775,327.195542286575L330.2143075788,324.5915362242L330.2143075788,305.2308421998L319.4486545434,305.2308421998L313.1699042616,338.052244485L296.3731546678,338.052244485L302.6519049496,305.2308421998L293.430445719,305.2308421998L293.430445719,292.6587737701L358.4176963156,292.6587737701L358.4176963156,305.2308421998ZM283.6845433095,287.1521203907L292.017362709,287.1521203907L279.576405074,330.870286506L264.1927384903,330.870286506L275.2206131152,297.4078981132L264.7171816693,297.4078981132L274.4485162128,259.9684822797L273.9386408999,259.9684822797L263.3040986592,259.9684822797L263.3040986592,337.527801306L247.9204320755,337.527801306L247.9204320755,247.7897462343L256.253251475,247.7897462343L263.3040986592,247.7897462343L292.017362709,247.7897462343ZM373.1458089256,269.845495484L373.1458089256,258.1766347515L378.5213515103,258.1766347515L375.840864151,247.6732033056L392.1131705658,247.6732033056L394.8082257911,258.1766347515L397.7509347399,258.1766347515L397.7509347399,245.3569125984L415.3197812361,245.3569125984L415.3197812361,258.1766347515L418.2624901849,258.1766347515L420.9575454103,247.6732033056L437.2444196911,247.6732033056L434.5493644658,258.1766347515L439.9394749165,258.1766347515L439.9394749165,269.845495484L415.3197812361,269.845495484L415.3197812361,289.8471756161L397.7509347399,289.8471756161L397.7509347399,269.845495484ZM387.8884894017,289.8471756161L373.1458089256,289.8471756161L377.5016008845,273.0504260223L392.2442813605,273.0504260223ZM425.1967944404,289.8471756161L420.8264346155,273.0504260223L435.5691150916,273.0504260223L439.9394749165,289.8471756161ZM373.1458089256,337.7900228955L373.1458089256,326.7621482706L378.466722012475,326.05924873212496L384.1736835505,325.2325223319L380.8376422175,323.8777107862L377.3704900897,322.4063563118L377.3704900897,311.2473708921L377.3704900897,308.6834264615L373.1458089256,308.6834264615L373.1458089256,297.0291335951L377.3704900897,297.0291335951L377.3704900897,293.0521061544L392.8852674682,293.0521061544L392.8852674682,297.0291335951L420.1854485079,297.0291335951L420.1854485079,293.0521061544L435.7002258863,293.0521061544L435.7002258863,297.0291335951L439.9394749165,297.0291335951L439.9394749165,308.6834264615L435.7002258863,308.6834264615L435.7002258863,311.2473708921L435.7002258863,322.4063563118L432.2476416246,323.8777107862L428.9116002916,325.2325223319L434.618561829675,326.05924873212496L439.9394749165,326.7621482706L439.9394749165,337.7900228955L435.19035057340625,337.3839436284375L430.68887995372495,336.93780272965L426.4350630574562,336.4516001991375L422.4288998846,335.9253360369L414.59867186500003,334.57052449114997L406.6081973184,332.6621340343L398.50846377625,334.57052449114997L390.6418160914,335.9253360369L386.6420263599625,336.4516001991375L382.39276192185,336.93780272965L377.89402277706256,337.3839436284375ZM392.8852674682,308.6834264615L392.8852674682,315.8653844405L399.8050038576,318.2982180763L406.6081973184,320.3522871941L413.3385514488,318.2982180763L420.1854485079,315.8653844405L420.1854485079,308.6834264615ZM485.6971422834,256.2536764285L485.6971422834,268.8257448582L485.5013865829125,274.69295292315627L484.91411948145,280.246951867325L483.9353409790125,285.48774169070623L482.5650510756,290.4153223933L480.84422189451254,295.08523396455627L478.82839342525,299.538448527825L476.5175656678125,303.7749660831062L473.9117386222,307.7947866304L479.5495027964,312.8498361613L485.6971422834,318.0505643529L485.6971422834,337.2801475826L479.880921749775,333.110095916325L474.2322316761,328.8162173883L468.827553359225,324.32931463475006L463.7725038284,319.5801902917L458.746590029775,324.32931463475006L453.4001831773,328.8162173883L447.78427080225,333.110095916325L441.9789761681,337.2801475826L441.9789761681,318.0505643529L448.1411835213,312.8498361613L453.7789476954,307.7947866304L451.4571940384312,304.12368437748756L449.357600339225,300.29233559765004L447.48016659778125,296.3007402908875L445.8248928141,292.1488984572L444.44003504455003,287.78127010719373L443.3592814795,283.14231525137495L442.5826321189501,278.2320338897437L442.1100869629,273.0504260223L456.7216566442,273.0504260223L457.0667329720437,276.7069604091438L457.57751877657495,280.11584107257505L458.2540140577937,283.2770680125938L459.0962188157,286.1906412292L461.23041119692505,291.558899880875L463.9036146232,296.5046904161L465.6016815135,293.7404378268188L467.0976192619,290.8232226436751L468.3914278684,287.7530448666688L469.483107333,284.5299044958L470.34989536494373,281.0682153178125L470.969029673475,277.29695898555L471.3405102585938,273.21613549901247L471.4643371203,268.8257448582L465.447808428,268.8257448582L442.2411977576,268.8257448582L449.9330310495,245.3569125984L467.8806420638,245.3569125984L464.4134899361,256.2536764285ZM518.1106443183,337.7900228955L499.9008117144,337.7900228955L499.9008117144,326.6310374759L499.9008117144,321.5031486146L499.9008117144,312.7915646969L499.9008117144,307.6636758357L499.9008117144,297.539008908L499.9008117144,296.2570366927L590.8042960728,296.2570366927L609.3928931948,296.2570366927L609.3928931948,307.6636758357L609.3928931948,312.7915646969L609.3928931948,320.9932733017L609.3928931948,321.5031486146L609.0214126097,324.83918994765L608.1691924438,327.9130096912L606.8690103959,330.6736203139L605.1536441646,333.0408985524L603.0704393147751,335.0002765406L600.6667414111,336.5080506802L598.0408835495749,337.469529841675L595.2911988264,337.7900228955ZM518.1106443183,307.6636758357L518.1106443183,312.7915646969L590.8042960728,312.7915646969L590.8042960728,307.6636758357ZM518.1106443183,321.5031486146L518.1106443183,326.6310374759L586.6961578374,326.6310374759L588.3277588387,326.2814086899L589.6388667862,325.2325223319L590.5129387511499,323.65919279490004L590.8042960728,321.7653702041L590.8042960728,321.5031486146ZM560.0369629054,246.6388848137L560.0369629054,245.4880233931L610.9225191335,245.4880233931L610.9225191335,246.6388848137L610.9225191335,258.1766347515L610.9225191335,278.950411786L610.64937164445,281.7984296052L609.8299291773,284.4570651654L608.540673028975,286.860763069075L606.8289487642,288.9439679189L604.7457439143,290.65933415020004L602.3420460106,291.9595161981L599.679768483925,292.77895866532504L596.8208247651,293.0521061544L560.0369629054,293.0521061544L560.0369629054,288.0553280879L560.0369629054,280.363494796L560.0369629054,258.1766347515ZM593.1060189139,276.3864673553L593.1060189139,258.1766347515L577.853463125,258.1766347515L577.853463125,280.363494796L589.1289914733,280.363494796L590.6731852780749,280.07213747435003L591.9551574934,279.1980655094L592.818303558775,277.919735260575ZM519.2615057388,293.0521061544L498.6188394991,293.0521061544L513.7548523594,279.9701624118L498.3711857757,279.9701624118L498.3711857757,267.2815510534L520.4123671594,267.2815510534L520.4123671594,262.6635375051L516.0565752006,262.6635375051L506.5728943805,262.6635375051L498.3711857757,262.6635375051L504.387714468,245.4880233931L522.087671759,245.4880233931L520.5434779541,249.9749261467L554.1369771417,249.9749261467L554.1369771417,262.6635375051L538.2434352451,262.6635375051L538.2434352451,267.2815510534L554.9090740441,267.2815510534L554.9090740441,279.9701624118L545.410825358,279.9701624118L556.5698107776,293.0521061544L538.753310558,293.0521061544L530.5516019532,283.3062037448Z"></path></svg>